<svg width="772" height="127" viewBox="0 0 772 127" fill="none" xmlns="http://www.w3.org/2000/svg">
<path d="M70.0937 0.281616L21.2954 67.318H114.804L70.0937 0.281616Z" fill="#DD4734"/>
<path d="M93.785 63.7176H47.1118V126.548H93.785V63.7176Z" fill="#DD4734"/>
<path d="M51.3141 11.8743L6.14307 71.9483H92.4346L51.3141 11.8743Z" fill="#0E9D57"/>
<path d="M72.5543 70.1994H29.4702V126.546H72.5543V70.1994Z" fill="#0E9D57"/>
<path d="M52.0033 61.585L28.4849 98.3783H75.5217L52.0033 61.585Z" fill="#F0B700"/>
<path d="M61.861 98.3786H40.1714V126.547H61.861V98.3786Z" fill="#F0B700"/>
<path d="M29.2593 50.4348L0.591309 90.8968H57.9274L29.2593 50.4348Z" fill="#4D79F7"/>
<path d="M44.3838 88.8993H14.1362V126.548H44.3838V88.8993Z" fill="#4D79F7"/>
<path opacity="0.65" d="M44.3838 90.8969H57.8612L44.3838 104.554V90.8969Z" fill="#1C1B1B"/>
<path opacity="0.65" d="M61.8623 98.3786H75.2814L61.8623 111.968V98.3786Z" fill="#1C1B1B"/>
<path opacity="0.65" d="M72.5635 71.9481H92.4344L72.5635 92.0782V71.9481Z" fill="#1C1B1B"/>
<path d="M143.656 46.2578C143.606 47.4766 143.923 48.6823 144.567 49.7171C145.194 50.6347 146.034 51.386 147.014 51.9068C148.138 52.5055 149.329 52.9683 150.562 53.2856C151.909 53.646 153.291 53.9715 154.727 54.2588C156.696 54.6906 158.558 55.1686 160.313 55.6927C162.051 56.2044 163.694 56.9977 165.177 58.0413C166.707 59.1361 167.943 60.5938 168.776 62.2845C169.692 64.0695 170.15 66.3865 170.15 69.2356C170.197 71.6223 169.667 73.9849 168.606 76.1214C167.583 78.1236 166.094 79.8494 164.266 81.1531C162.232 82.5762 159.959 83.6188 157.556 84.2305C154.757 84.957 151.875 85.3111 148.985 85.2837C147.25 85.2927 145.517 85.193 143.796 84.9852C142.406 84.8196 141.029 84.5675 139.671 84.2305C138.639 83.9718 137.622 83.6559 136.624 83.2843C135.91 83.0164 135.211 82.7099 134.53 82.3662V75.3408C136.618 76.1805 138.765 76.8668 140.952 77.3942C143.254 77.9171 145.608 78.1704 147.969 78.1489C149.8 78.1683 151.627 77.9866 153.419 77.6071C154.89 77.3055 156.303 76.7681 157.604 76.0155C158.71 75.3718 159.637 74.4587 160.299 73.3605C160.945 72.2371 161.273 70.9573 161.245 69.6603C161.293 68.4141 160.995 67.179 160.384 66.0929C159.8 65.147 159.005 64.35 158.062 63.7646C157.006 63.1185 155.871 62.6112 154.685 62.2552C153.409 61.8643 152.071 61.4994 150.666 61.1761C148.833 60.7796 146.972 60.3118 145.083 59.7726C143.267 59.264 141.531 58.4998 139.928 57.5029C138.368 56.5119 137.079 55.1455 136.18 53.5277C135.224 51.8516 134.75 49.7036 134.75 47.0689C134.75 44.37 135.245 42.0289 136.233 40.0457C137.176 38.1163 138.55 36.4316 140.248 35.1232C142.008 33.788 144.003 32.7982 146.128 32.2058C148.434 31.5458 150.822 31.2174 153.219 31.2303C155.925 31.2109 158.625 31.4828 161.273 32.0413C163.573 32.5301 165.827 33.2172 168.009 34.0948V41.2318C165.883 40.4092 163.704 39.7318 161.487 39.2042C159.264 38.678 156.989 38.3966 154.704 38.365C153.006 38.333 151.311 38.5331 149.666 38.9598C148.427 39.2818 147.261 39.8414 146.234 40.6077C145.383 41.2574 144.709 42.1126 144.275 43.0937C143.856 44.0951 143.647 45.172 143.66 46.2578H143.656ZM202.227 77.9867C204.817 78.0065 207.402 77.7802 209.949 77.3109C212.315 76.8522 214.642 76.2101 216.909 75.3904V82.3719C214.7 83.3771 212.371 84.0941 209.98 84.5053C207.062 85.0436 204.1 85.3076 201.133 85.2938C197.577 85.319 194.035 84.8455 190.609 83.8869C187.465 83.0232 184.551 81.4692 182.078 79.3373C179.683 77.2504 177.806 74.5223 176.447 71.1528C175.088 67.7833 174.41 63.7199 174.413 58.9627C174.413 54.2783 175.071 50.2161 176.387 46.776C177.55 43.5776 179.339 40.6451 181.648 38.151C183.769 35.8962 186.349 34.1269 189.214 32.9639C192.054 31.8137 195.089 31.2258 198.152 31.2326C200.948 31.2112 203.724 31.6966 206.348 32.6654C208.879 33.6158 211.145 35.1635 212.954 37.1778C214.819 39.2346 216.291 41.884 217.369 45.1258C218.446 48.3676 218.987 52.2598 218.992 56.8022V57.9095C218.992 58.2151 218.974 58.9094 218.937 59.9922H182.877C182.877 63.2679 183.382 66.0505 184.392 68.3401C185.302 70.5022 186.715 72.4139 188.513 73.9147C190.318 75.3681 192.406 76.4267 194.643 77.0225C197.117 77.6835 199.667 78.0089 202.227 77.9901V77.9867ZM197.737 38.418C195.85 38.4014 193.981 38.7893 192.256 39.5557C190.599 40.2887 189.097 41.3337 187.832 42.6342C186.55 43.9643 185.513 45.5119 184.769 47.2052C183.98 48.9756 183.488 50.8644 183.313 52.7956H210.032C210.048 50.8838 209.776 48.9805 209.226 47.15C208.733 45.4911 207.931 43.9413 206.861 42.5835C205.825 41.2896 204.513 40.246 203.021 39.5298C201.366 38.7607 199.558 38.3805 197.735 38.418H197.737ZM274.381 58.3127C274.429 62.0625 273.833 65.7925 272.619 69.3392C271.552 72.4843 269.86 75.3794 267.645 77.8493C265.482 80.2254 262.827 82.0981 259.867 83.3361C256.628 84.6749 253.152 85.3379 249.65 85.2848C245.765 85.2848 242.293 84.6352 239.234 83.3361C236.263 82.1036 233.598 80.2304 231.429 77.8493C229.221 75.3835 227.546 72.4861 226.509 69.3392C225.335 65.7841 224.76 62.0576 224.806 58.3127C224.753 54.5449 225.343 50.7957 226.551 47.2277C227.628 44.0773 229.321 41.1742 231.531 38.6883C233.692 36.2923 236.357 34.4072 239.332 33.1689C242.585 31.8371 246.072 31.1785 249.585 31.2326C253.143 31.1758 256.676 31.8373 259.973 33.1779C262.955 34.4074 265.623 36.2937 267.78 38.6973C269.966 41.1812 271.628 44.0827 272.668 47.2277C273.848 50.8006 274.425 54.5459 274.376 58.3094L274.381 58.3127ZM265.479 58.3127C265.522 55.4493 265.123 52.5963 264.295 49.8556C263.606 47.5722 262.486 45.4425 260.998 43.5815C259.641 41.9139 257.919 40.5826 255.966 39.6908C253.954 38.8163 251.784 38.3651 249.591 38.3651C247.399 38.3651 245.229 38.8163 243.217 39.6908C241.264 40.581 239.543 41.9126 238.188 43.5815C236.697 45.4405 235.577 47.5709 234.891 49.8556C234.062 52.5962 233.663 55.4492 233.708 58.3127C233.666 61.1583 234.065 63.9932 234.891 66.7158C235.574 68.9974 236.702 71.1198 238.211 72.9595C239.588 74.6112 241.317 75.9315 243.27 76.8232C245.276 77.7207 247.45 78.173 249.646 78.1489C251.831 78.1742 253.996 77.7218 255.99 76.8232C257.927 75.9292 259.637 74.6086 260.995 72.9595C262.485 71.1114 263.604 68.9906 264.29 66.7147C265.115 63.9919 265.514 61.1572 265.473 58.3116L265.479 58.3127ZM310.859 39.389H310.196C308.205 39.388 306.218 39.569 304.26 39.9296C302.381 40.2706 300.546 40.8234 298.791 41.5776C297.141 42.2829 295.589 43.2008 294.175 44.308C292.813 45.3741 291.65 46.6729 290.738 48.1446V83.9331H282.219V32.5843H288.814L290.467 40.744H290.627C291.503 39.3738 292.548 38.1199 293.737 37.0122C294.991 35.8385 296.384 34.8239 297.884 33.9912C299.478 33.1035 301.178 32.4222 302.943 31.9636C304.826 31.4692 306.765 31.223 308.711 31.2315C309.079 31.2315 309.453 31.2382 309.839 31.2574C310.225 31.2765 310.564 31.3024 310.859 31.343V39.3935V39.389ZM339.081 77.9867C341.669 78.007 344.254 77.7807 346.8 77.3109C349.166 76.8516 351.493 76.2095 353.761 75.3904V82.3719C351.55 83.3761 349.22 84.093 346.828 84.5053C343.91 85.0437 340.948 85.3077 337.981 85.2938C334.426 85.3152 330.885 84.8391 327.461 83.879C324.321 83.0173 321.41 81.466 318.94 79.3373C316.546 77.2504 314.668 74.5223 313.308 71.1528C311.948 67.7833 311.27 63.7199 311.273 58.9627C311.273 54.2783 311.931 50.2161 313.249 46.776C314.415 43.5787 316.204 40.6466 318.513 38.151C320.632 35.8942 323.213 34.1246 326.078 32.9639C328.916 31.8135 331.949 31.2256 335.01 31.2326C337.806 31.2119 340.582 31.6973 343.205 32.6654C345.737 33.6142 348.003 35.1622 349.811 37.1778C351.675 39.2346 353.146 41.884 354.225 45.1258C355.305 48.3676 355.847 52.2598 355.851 56.8022V57.9095C355.851 58.2151 355.83 58.9094 355.788 59.9922H319.735C319.735 63.2679 320.239 66.0505 321.245 68.3401C322.158 70.5018 323.572 72.4132 325.371 73.9147C327.176 75.3684 329.265 76.4259 331.503 77.0191C333.976 77.6806 336.527 78.0061 339.086 77.9867H339.081ZM334.59 38.418C332.702 38.4008 330.832 38.7887 329.105 39.5557C327.449 40.2917 325.948 41.3364 324.681 42.6342C323.401 43.9647 322.366 45.5123 321.624 47.2052C320.838 48.9759 320.349 50.8648 320.177 52.7956H346.896C346.911 50.8838 346.639 48.9806 346.09 47.15C345.597 45.4915 344.795 43.9419 343.726 42.5835C342.689 41.2907 341.376 40.2473 339.884 39.5298C338.229 38.7607 336.421 38.3805 334.598 38.418H334.59ZM370.777 46.2578C370.725 47.4768 371.044 48.6827 371.691 49.7159C372.317 50.6325 373.154 51.384 374.131 51.9068C375.256 52.5044 376.447 52.9671 377.68 53.2856C379.027 53.646 380.412 53.9715 381.852 54.2577C383.816 54.6902 385.676 55.1682 387.431 55.6916C389.171 56.2055 390.816 56.9986 392.304 58.0402C393.831 59.1363 395.065 60.5943 395.896 62.2845C396.81 64.0687 397.268 66.3854 397.269 69.2345C397.318 71.6218 396.788 73.9852 395.724 76.1214C394.703 78.1246 393.214 79.8505 391.385 81.152C389.356 82.5772 387.085 83.621 384.684 84.2327C381.884 84.9582 379.001 85.3122 376.109 85.2859C374.371 85.2952 372.634 85.1955 370.908 84.9874C369.521 84.8212 368.145 84.5691 366.789 84.2327C365.757 83.973 364.74 83.6572 363.742 83.2865C363.029 83.0183 362.331 82.7119 361.651 82.3685V75.3408C363.738 76.1803 365.884 76.8666 368.071 77.3942C370.374 77.9172 372.73 78.1704 375.091 78.1489C376.92 78.1683 378.745 77.9866 380.534 77.6071C382.007 77.3067 383.421 76.7692 384.723 76.0155C385.828 75.3714 386.754 74.4603 387.418 73.3651C388.065 72.2417 388.393 70.962 388.366 69.6648C388.414 68.4178 388.113 67.1822 387.499 66.0974C386.916 65.152 386.124 64.355 385.183 63.7691C384.126 63.1232 382.991 62.6145 381.807 62.2552C380.528 61.8643 379.193 61.4994 377.789 61.1761C375.95 60.7796 374.089 60.3118 372.206 59.7726C370.389 59.2647 368.653 58.5005 367.049 57.5029C365.489 56.5128 364.2 55.1462 363.301 53.5277C362.349 51.8516 361.87 49.7036 361.87 47.0689C361.87 44.37 362.363 42.0289 363.35 40.0457C364.293 38.1167 365.667 36.4322 367.365 35.1232C369.126 33.7858 371.124 32.7958 373.253 32.2058C375.557 31.5455 377.943 31.2178 380.338 31.2326C383.043 31.2131 385.741 31.485 388.388 32.0436C390.688 32.5319 392.942 33.2189 395.124 34.0971V41.234C392.999 40.4108 390.821 39.7334 388.604 39.2065C386.379 38.6802 384.103 38.3988 381.817 38.3673C380.119 38.3353 378.424 38.5354 376.779 38.962C375.541 39.2841 374.377 39.8437 373.351 40.61C372.496 41.257 371.821 42.1129 371.39 43.096C370.968 44.0964 370.758 45.1739 370.773 46.2601L370.777 46.2578ZM429.348 77.9867C431.938 78.0064 434.524 77.7802 437.072 77.3109C439.434 76.8516 441.757 76.2095 444.021 75.3904V82.3719C441.813 83.3777 439.486 84.0947 437.096 84.5053C434.176 85.0442 431.213 85.3082 428.244 85.2938C424.688 85.3157 421.147 84.8395 417.723 83.879C414.583 83.0163 411.673 81.4651 409.204 79.3373C406.809 77.2504 404.933 74.5223 403.575 71.1528C402.217 67.7833 401.538 63.7195 401.536 58.9616C401.536 54.2779 402.196 50.2157 403.515 46.7749C404.675 43.5763 406.463 40.6438 408.773 38.151C410.895 35.8953 413.477 34.126 416.343 32.9639C419.183 31.8134 422.218 31.2255 425.281 31.2326C428.075 31.2119 430.849 31.6973 433.47 32.6654C436.004 33.6148 438.272 35.1626 440.084 37.1778C441.944 39.2346 443.413 41.884 444.49 45.1258C445.567 48.3676 446.106 52.2598 446.108 56.8022V57.9095C446.108 58.2151 446.089 58.9098 446.052 59.9934H409.999C409.999 63.269 410.501 66.0516 411.505 68.3412C412.422 70.5005 413.836 72.411 415.631 73.9159C417.437 75.3677 419.525 76.4261 421.761 77.0237C424.235 77.6845 426.787 78.0099 429.348 77.9912V77.9867ZM424.857 38.418C422.969 38.4003 421.099 38.7882 419.373 39.5557C417.715 40.2889 416.212 41.3339 414.945 42.6342C413.665 43.9656 412.629 45.5129 411.885 47.2052C411.103 48.9769 410.616 50.8649 410.441 52.7944H437.16C437.173 50.8827 436.899 48.9798 436.347 47.15C435.859 45.4909 435.059 43.9409 433.99 42.5835C432.953 41.2911 431.641 40.2474 430.15 39.5286C428.495 38.7604 426.688 38.3805 424.865 38.418H424.857ZM455.489 83.9342V5.66293H464.014V83.9331H455.489V83.9342ZM475.968 83.9342V5.66293H484.493V83.9331H475.968V83.9342ZM520.693 77.9867C523.281 78.0071 525.865 77.7808 528.41 77.3109C530.776 76.8508 533.103 76.2087 535.371 75.3904V82.3719C533.162 83.3762 530.833 84.0932 528.443 84.5053C525.524 85.0436 522.56 85.3076 519.592 85.2938C516.035 85.3196 512.492 84.8464 509.066 83.888C505.927 83.0265 503.018 81.4751 500.551 79.3463C498.156 77.2587 496.277 74.5305 494.915 71.1618C493.553 67.793 492.874 63.7297 492.88 58.9717C492.88 54.2873 493.537 50.2247 494.852 46.7839C496.019 43.5828 497.812 40.648 500.125 38.1522C502.244 35.8954 504.825 34.1258 507.691 32.965C510.528 31.8144 513.56 31.2261 516.62 31.2326C519.416 31.212 522.192 31.6974 524.816 32.6654C527.346 33.6153 529.611 35.1631 531.418 37.1778C533.285 39.2346 534.758 41.884 535.838 45.1258C536.918 48.3676 537.458 52.2598 537.458 56.8022V57.9084C537.458 58.2136 537.433 58.9075 537.402 59.9922H501.338C501.338 63.2679 501.845 66.0505 502.859 68.3401C503.767 70.5029 505.181 72.4146 506.981 73.9136C508.784 75.3687 510.87 76.4279 513.106 77.0225C515.581 77.6836 518.133 78.0086 520.693 77.989V77.9867ZM516.196 38.418C514.31 38.4009 512.443 38.7888 510.719 39.5557C509.059 40.2878 507.554 41.3329 506.287 42.6342C505.008 43.9658 503.973 45.5131 503.229 47.2052C502.445 48.9768 501.956 50.8652 501.78 52.7956H528.499C528.512 50.8842 528.242 48.9814 527.696 47.15C527.199 45.4924 526.396 43.9433 525.329 42.5835C524.291 41.2894 522.976 40.2458 521.483 39.5298C519.829 38.7601 518.023 38.3798 516.2 38.418H516.196ZM574.919 39.3923H574.261C572.27 39.3913 570.284 39.5723 568.326 39.933C566.448 40.2728 564.613 40.8256 562.859 41.581C561.207 42.2853 559.654 43.2033 558.239 44.3114C556.875 45.3759 555.71 46.6749 554.798 48.148V83.9331H546.277V32.5843H552.88L554.529 40.744H554.694C555.568 39.374 556.61 38.1201 557.797 37.0122C560.403 34.5926 563.566 32.8581 567.003 31.9636C568.887 31.4698 570.828 31.2237 572.775 31.2315C573.142 31.2315 573.517 31.2382 573.898 31.2574C574.279 31.2765 574.627 31.3024 574.917 31.343V39.3935L574.919 39.3923ZM573.693 83.9331V73.391H584.133V83.9331H573.693ZM618.852 31.2326C621.293 31.2245 623.727 31.4871 626.11 32.0154C628.184 32.4537 630.184 33.1909 632.047 34.2041V41.18C629.969 40.3812 627.838 39.7296 625.669 39.2301C623.719 38.7945 621.726 38.5765 619.728 38.5802C617.581 38.5846 615.449 38.9298 613.41 39.603C611.311 40.298 609.393 41.4544 607.796 42.9879C606.15 44.5551 604.821 46.6262 603.811 49.2012C602.801 51.7762 602.297 54.9744 602.301 58.796C602.276 61.3986 602.656 63.9892 603.429 66.4736C604.12 68.71 605.261 70.7803 606.782 72.5563C608.311 74.302 610.22 75.6714 612.361 76.5584C614.822 77.5567 617.459 78.043 620.113 77.9879C622.273 77.9835 624.426 77.757 626.54 77.312C628.704 76.8633 630.822 76.2193 632.87 75.3881V82.3719C632.087 82.8021 631.269 83.1632 630.425 83.451C629.336 83.8331 628.225 84.1483 627.098 84.3949C625.827 84.6766 624.542 84.8939 623.249 85.046C621.9 85.2094 620.543 85.2903 619.185 85.2882C615.794 85.3071 612.423 84.7745 609.202 83.7112C606.083 82.711 603.227 81.0215 600.845 78.7672C598.463 76.5129 596.616 73.7511 595.438 70.6853C594.079 67.3714 593.401 63.4432 593.403 58.9007C593.367 55.8226 593.729 52.7528 594.478 49.7678C595.108 47.2588 596.098 44.855 597.418 42.6319C598.589 40.6639 600.063 38.8942 601.786 37.3884C604.974 34.6047 608.827 32.6966 612.969 31.8499C614.904 31.445 616.876 31.2374 618.853 31.2303L618.852 31.2326ZM686.71 58.3127C686.759 62.0625 686.163 65.7927 684.948 69.3392C683.882 72.4827 682.193 75.3774 679.983 77.8493C677.816 80.2241 675.16 82.0965 672.198 83.3361C668.958 84.675 665.48 85.338 661.976 85.2848C658.091 85.2848 654.618 84.6352 651.557 83.3361C648.587 82.103 645.923 80.2299 643.754 77.8493C641.546 75.384 639.871 72.4864 638.834 69.3392C637.661 65.7839 637.086 62.0576 637.131 58.3127C637.081 54.5439 637.677 50.7944 638.892 47.2277C639.967 44.0783 641.656 41.1754 643.862 38.6883C646.027 36.2929 648.694 34.408 651.671 33.1689C654.924 31.8361 658.412 31.1774 661.925 31.2326C665.482 31.1766 669.014 31.8381 672.312 33.1779C675.293 34.4089 677.962 36.295 680.121 38.6973C682.304 41.1825 683.965 44.0838 685.006 47.2277C686.184 50.8019 686.76 54.5483 686.71 58.3127ZM677.808 58.3127C677.854 55.4494 677.456 52.5964 676.628 49.8556C675.934 47.5734 674.813 45.4443 673.327 43.5815C671.972 41.9127 670.251 40.581 668.298 39.6908C666.285 38.8163 664.115 38.3652 661.921 38.3652C659.727 38.3652 657.556 38.8163 655.543 39.6908C653.59 40.5829 651.868 41.9142 650.51 43.5815C649.023 45.4436 647.904 47.573 647.213 49.8556C646.386 52.5966 645.989 55.4495 646.034 58.3127C645.989 61.1582 646.386 63.9934 647.213 66.7158C647.902 68.9968 649.033 71.1186 650.541 72.9595C651.917 74.61 653.643 75.9302 655.593 76.8232C657.599 77.7205 659.773 78.1727 661.969 78.1489C664.156 78.1743 666.322 77.7219 668.317 76.8232C670.254 75.9307 671.965 74.6098 673.32 72.9595C674.813 71.111 675.937 68.9906 676.63 66.7147C677.452 63.9917 677.85 61.1577 677.81 58.3127H677.808ZM737.204 83.9331H728.697V50.9054C728.734 48.9774 728.481 47.0548 727.947 45.2024C727.53 43.7691 726.798 42.4482 725.803 41.3377C724.881 40.3373 723.73 39.5776 722.45 39.1243C721.045 38.6366 719.567 38.3976 718.081 38.418C715.14 38.3889 712.254 39.2254 709.781 40.824C707.139 42.575 704.862 44.8245 703.075 47.4473V83.9331H694.556V32.5843H701.145L702.804 39.7156H702.968C703.915 38.5296 704.95 37.418 706.066 36.3904C707.207 35.3498 708.462 34.4428 709.807 33.687C711.235 32.8918 712.758 32.2828 714.339 31.8746C716.101 31.4328 717.912 31.2159 719.728 31.2292C723.613 31.2292 726.836 32.1491 729.4 33.9889C732.028 35.8978 734.082 38.4956 735.336 41.4976H735.561C737.675 38.4784 740.37 35.9149 743.488 33.9585C746.45 32.1412 749.916 31.2326 753.885 31.2326C755.854 31.2488 757.814 31.5025 759.723 31.9884C761.788 32.5012 763.721 33.4497 765.393 34.7707C767.124 36.1224 768.548 37.9866 769.686 40.3689C770.825 42.7513 771.386 45.8062 771.386 49.5582V83.9342H762.873V50.9054C762.913 48.9779 762.663 47.0552 762.132 45.2024C761.711 43.7699 760.977 42.4496 759.983 41.3377C759.062 40.3364 757.911 39.5764 756.63 39.1243C755.227 38.6372 753.75 38.3983 752.266 38.418C749.315 38.3906 746.421 39.2267 743.936 40.824C741.281 42.5692 738.993 44.8194 737.2 47.4473L737.204 83.9331ZM146.398 107.746C146.219 106.137 145.587 104.968 144.513 104.254C143.439 103.539 142.062 103.171 140.385 103.173C139.713 103.173 139.042 103.235 138.381 103.359C137.768 103.469 137.177 103.681 136.633 103.987C136.098 104.279 135.655 104.716 135.357 105.25C135.059 105.783 134.918 106.39 134.949 107.001C134.937 107.311 134.99 107.62 135.104 107.908C135.219 108.197 135.392 108.46 135.613 108.678C136.123 109.147 136.725 109.505 137.38 109.729C138.193 110.02 139.028 110.246 139.878 110.405C140.804 110.58 141.754 110.773 142.728 110.984C143.702 111.195 144.653 111.441 145.583 111.721C146.461 111.978 147.296 112.364 148.062 112.866C148.778 113.335 149.377 113.964 149.813 114.702C150.282 115.605 150.509 116.615 150.473 117.632C150.437 118.649 150.14 119.64 149.609 120.508C149.028 121.353 148.269 122.06 147.386 122.578C146.44 123.125 145.414 123.52 144.346 123.749C143.248 123.998 142.127 124.124 141.001 124.126C139.701 124.132 138.404 123.975 137.143 123.658C136 123.377 134.918 122.887 133.951 122.214C133.041 121.577 132.295 120.733 131.774 119.75C131.217 118.66 130.941 117.447 130.972 116.222H134.029C134.006 117.071 134.211 117.911 134.624 118.654C135.012 119.324 135.545 119.898 136.185 120.333C136.871 120.787 137.631 121.117 138.43 121.306C139.304 121.517 140.2 121.621 141.098 121.617C141.832 121.617 142.565 121.554 143.289 121.429C143.98 121.318 144.651 121.103 145.278 120.791C145.847 120.502 146.337 120.076 146.702 119.551C147.087 118.956 147.277 118.255 147.247 117.546C147.276 116.856 147.038 116.181 146.584 115.661C146.092 115.147 145.494 114.747 144.833 114.487C144.032 114.16 143.203 113.908 142.356 113.735C141.423 113.538 140.477 113.343 139.498 113.152C138.519 112.962 137.572 112.739 136.643 112.476C135.769 112.243 134.931 111.89 134.152 111.429C133.444 111.017 132.838 110.449 132.383 109.766C131.918 109.004 131.687 108.121 131.72 107.229C131.694 106.2 131.952 105.184 132.466 104.293C132.963 103.469 133.644 102.772 134.454 102.255C135.323 101.705 136.277 101.301 137.276 101.059C138.339 100.798 139.428 100.666 140.522 100.667C141.69 100.66 142.854 100.797 143.988 101.076C144.99 101.32 145.937 101.756 146.774 102.361C147.563 102.949 148.213 103.705 148.675 104.576C149.176 105.561 149.444 106.649 149.461 107.756H146.4L146.398 107.746ZM159.409 101.193H163.824L171.472 120.011L179.143 101.193H183.56V123.591H180.506V104.957H180.438L172.864 123.591H170.112L162.544 104.957H162.477V123.591H159.412V101.193H159.409ZM200.479 101.193H204.046L213.525 123.591H209.96L207.311 116.844H197.05L194.331 123.591H190.999L200.479 101.193ZM198.067 114.335H206.289L202.248 103.89H202.182L198.067 114.335ZM220.863 101.193H232.28C234.565 101.193 236.365 101.719 237.68 102.77C238.322 103.282 238.835 103.938 239.178 104.685C239.52 105.427 239.682 106.24 239.649 107.056C239.676 108.321 239.328 109.565 238.648 110.63C237.983 111.66 236.911 112.357 235.437 112.737V112.798C236.045 112.889 236.629 113.103 237.153 113.426C237.577 113.7 237.94 114.056 238.223 114.475C238.499 114.89 238.695 115.354 238.8 115.842C238.912 116.345 239.004 116.87 239.073 117.41C239.115 117.951 239.159 118.512 239.185 119.09C239.215 119.646 239.274 120.201 239.36 120.751C239.434 121.274 239.559 121.789 239.733 122.288C239.896 122.769 240.155 123.213 240.494 123.591H236.895C236.674 123.353 236.521 123.06 236.455 122.742C236.379 122.37 236.327 121.994 236.3 121.615C236.265 121.178 236.238 120.671 236.213 120.092C236.183 119.415 236.115 118.741 236.008 118.071C235.927 117.547 235.815 117.028 235.671 116.517C235.548 116.048 235.329 115.61 235.028 115.231C234.712 114.85 234.311 114.55 233.857 114.356C233.26 114.112 232.619 113.997 231.974 114.019H224.091V123.593H220.862V101.193H220.863ZM230.818 111.515C231.535 111.516 232.251 111.464 232.96 111.358C233.587 111.269 234.19 111.059 234.737 110.74C235.245 110.446 235.668 110.026 235.965 109.519C236.343 108.76 236.491 107.907 236.392 107.065C236.292 106.223 235.949 105.429 235.404 104.781C234.722 104.058 233.623 103.698 232.106 103.701H224.09V111.513L230.818 111.515ZM253.988 103.702H245.905V101.193H265.3V103.702H257.217V123.591H253.992V103.702H253.988ZM287.416 101.193H291.832L299.478 120.011L307.156 101.193H311.569V123.591H308.512V104.957H308.445L300.869 123.591H298.115L290.541 104.957H290.472V123.591H287.416V101.193ZM328.488 101.193H332.05L341.532 123.591H337.966L335.32 116.84H325.06L322.339 123.587H319.015L328.488 101.193ZM326.074 114.335H334.295L330.253 103.89H330.186L326.074 114.335ZM348.864 101.193H360.279C362.565 101.193 364.361 101.719 365.667 102.77C366.312 103.281 366.828 103.937 367.173 104.685C367.516 105.427 367.678 106.241 367.647 107.058C367.672 108.323 367.323 109.566 366.645 110.633C365.972 111.662 364.907 112.359 363.432 112.739V112.8C364.041 112.892 364.624 113.105 365.149 113.428C365.573 113.701 365.937 114.058 366.218 114.477C366.494 114.892 366.689 115.356 366.791 115.844C366.913 116.362 367.005 116.885 367.069 117.412C367.113 117.953 367.153 118.514 367.188 119.092C367.222 119.67 367.279 120.218 367.356 120.753C367.435 121.276 367.56 121.79 367.731 122.29C367.894 122.771 368.152 123.215 368.491 123.593H364.891C364.674 123.352 364.522 123.06 364.448 122.744C364.374 122.372 364.324 121.996 364.298 121.617C364.266 121.18 364.242 120.673 364.21 120.094C364.181 119.418 364.114 118.743 364.01 118.074C363.925 117.55 363.811 117.031 363.668 116.519C363.544 116.051 363.326 115.613 363.027 115.233C362.709 114.852 362.306 114.552 361.849 114.359C361.253 114.114 360.612 113.999 359.969 114.021H352.083V123.595H348.87L348.864 101.193ZM358.815 111.515C359.532 111.516 360.248 111.464 360.958 111.358C361.585 111.269 362.189 111.059 362.737 110.74C363.247 110.447 363.672 110.026 363.97 109.519C364.35 108.761 364.499 107.907 364.399 107.065C364.299 106.223 363.955 105.428 363.409 104.781C362.729 104.058 361.632 103.698 360.116 103.701H352.095V111.513L358.815 111.515ZM377.095 101.193H380.318V112.358L392.619 101.193H396.794L386.578 110.225L397.208 123.591H393.137L384.37 112.262L380.328 115.746V123.591H377.105V101.193H377.095ZM404.712 101.193H421.458V103.702H407.947V110.822H420.553V113.331H407.947V121.083H421.568V123.592H404.728V101.193H404.712ZM435.927 103.702H427.844V101.193H447.248V103.702H439.165V123.591H435.939V103.702H435.927ZM455.013 101.193H458.246V123.591H455.013V101.193ZM468.597 101.193H472.026L484.8 119.352H484.867V101.193H487.925V123.591H484.398L471.745 105.614H471.677V123.591H468.619L468.597 101.193ZM516.258 120.793C515.795 121.37 515.251 121.876 514.643 122.297C514.049 122.715 513.409 123.064 512.735 123.335C512.054 123.608 511.346 123.807 510.623 123.931C509.918 124.052 509.205 124.115 508.49 124.117C506.823 124.147 505.168 123.826 503.632 123.176C502.271 122.593 501.04 121.74 500.013 120.67C499.018 119.635 498.242 118.409 497.733 117.065C497.213 115.716 496.947 114.281 496.947 112.834C496.938 111.251 497.185 109.678 497.679 108.175C498.135 106.75 498.876 105.433 499.855 104.303C500.85 103.168 502.078 102.263 503.455 101.649C505.045 100.957 506.766 100.62 508.499 100.66C509.75 100.651 510.998 100.794 512.215 101.085C513.327 101.341 514.384 101.792 515.339 102.418C516.256 103.024 517.043 103.807 517.655 104.721C518.313 105.744 518.746 106.896 518.926 108.1H515.7C515.564 107.313 515.263 106.564 514.817 105.902C514.397 105.284 513.852 104.762 513.218 104.369C512.551 103.956 511.824 103.652 511.063 103.467C510.223 103.268 509.362 103.169 508.499 103.173C507.191 103.136 505.894 103.415 504.716 103.986C503.702 104.494 502.819 105.23 502.134 106.136C501.453 107.046 500.952 108.078 500.658 109.177C500.338 110.313 500.177 111.488 500.179 112.669C500.175 113.815 500.357 114.954 500.718 116.04C501.064 117.086 501.608 118.054 502.322 118.891C503.033 119.733 503.919 120.408 504.918 120.871C506.042 121.384 507.267 121.636 508.501 121.608C509.641 121.626 510.775 121.435 511.847 121.045C512.776 120.704 513.625 120.174 514.34 119.488C515.014 118.84 515.533 118.047 515.857 117.168C516.189 116.251 516.332 115.276 516.277 114.301H508.545V111.793H519.172V123.589H517.133L516.258 120.793ZM557.298 107.742C557.117 106.134 556.49 104.964 555.415 104.25C554.339 103.536 552.958 103.17 551.281 103.17C550.61 103.169 549.94 103.232 549.281 103.356C548.667 103.465 548.076 103.677 547.534 103.983C546.997 104.278 546.554 104.718 546.254 105.253C545.956 105.784 545.814 106.389 545.845 106.998C545.833 107.307 545.886 107.616 546 107.904C546.115 108.194 546.289 108.456 546.511 108.675C547.022 109.144 547.624 109.502 548.279 109.726C549.093 110.017 549.928 110.243 550.777 110.402C551.709 110.576 552.651 110.77 553.629 110.981C554.606 111.191 555.554 111.431 556.487 111.717C557.364 111.977 558.199 112.363 558.966 112.863C559.679 113.336 560.278 113.963 560.718 114.699C561.183 115.603 561.408 116.612 561.371 117.629C561.334 118.646 561.037 119.637 560.507 120.504C559.926 121.35 559.167 122.056 558.283 122.575C557.337 123.122 556.311 123.517 555.243 123.745C554.145 123.995 553.023 124.121 551.897 124.122C550.598 124.129 549.302 123.972 548.041 123.655C546.898 123.373 545.815 122.884 544.847 122.211C543.938 121.574 543.193 120.73 542.675 119.746C542.118 118.656 541.842 117.443 541.873 116.218H544.93C544.907 117.068 545.111 117.908 545.523 118.65C545.913 119.319 546.446 119.893 547.085 120.33C547.77 120.784 548.53 121.114 549.33 121.303C550.203 121.513 551.098 121.618 551.996 121.614C552.73 121.614 553.462 121.551 554.185 121.426C554.877 121.315 555.547 121.099 556.175 120.787C556.745 120.499 557.234 120.073 557.6 119.548C557.981 118.951 558.17 118.251 558.139 117.543C558.171 116.852 557.934 116.176 557.478 115.657C556.987 115.145 556.392 114.745 555.734 114.484C554.933 114.157 554.104 113.905 553.257 113.731C552.322 113.534 551.372 113.339 550.395 113.149C549.419 112.959 548.472 112.736 547.537 112.473C546.664 112.239 545.828 111.887 545.05 111.426C544.341 111.014 543.735 110.445 543.278 109.763C542.814 109.001 542.585 108.118 542.62 107.225C542.594 106.197 542.85 105.181 543.362 104.29C543.863 103.467 544.544 102.77 545.355 102.252C546.223 101.701 547.176 101.298 548.175 101.058C549.236 100.796 550.325 100.664 551.418 100.666C552.595 100.654 553.768 100.789 554.911 101.07C555.914 101.312 556.86 101.748 557.696 102.354C558.489 102.938 559.14 103.696 559.598 104.57C560.101 105.555 560.37 106.643 560.384 107.75H557.325L557.298 107.742ZM569.614 107.978C570.084 106.593 570.829 105.318 571.803 104.23C572.823 103.114 574.068 102.229 575.455 101.634C578.706 100.334 582.33 100.334 585.58 101.634C586.964 102.229 588.204 103.117 589.217 104.236C590.191 105.323 590.934 106.598 591.402 107.983C592.388 110.838 592.388 113.943 591.402 116.797C590.934 118.183 590.191 119.46 589.217 120.548C588.202 121.666 586.963 122.555 585.58 123.156C582.327 124.445 578.708 124.445 575.455 123.156C574.094 122.566 572.872 121.695 571.869 120.599C570.866 119.504 570.104 118.208 569.633 116.797C568.657 113.941 568.657 110.84 569.633 107.983L569.614 107.978ZM572.588 115.726C572.892 116.801 573.4 117.808 574.083 118.691C574.784 119.587 575.677 120.311 576.697 120.811C577.896 121.337 579.19 121.608 580.499 121.608C581.807 121.608 583.102 121.337 584.301 120.811C585.323 120.313 586.219 119.588 586.921 118.691C587.603 117.807 588.111 116.801 588.42 115.726C589.05 113.544 589.05 111.227 588.42 109.044C588.111 107.97 587.602 106.965 586.921 106.081C586.22 105.184 585.324 104.46 584.301 103.966C583.102 103.438 581.807 103.165 580.499 103.165C579.19 103.165 577.895 103.438 576.697 103.966C575.677 104.463 574.783 105.186 574.083 106.081C573.401 106.964 572.893 107.97 572.588 109.044C571.952 111.226 571.952 113.545 572.588 115.726ZM601.019 101.19H604.244V121.079H617.09V123.587H601.041L601.019 101.19ZM644.233 115.495C644.233 118.338 643.399 120.486 641.732 121.937C640.064 123.389 637.715 124.116 634.683 124.118C633.268 124.135 631.858 123.968 630.486 123.619C629.343 123.329 628.278 122.791 627.365 122.042C626.503 121.315 625.832 120.387 625.412 119.339C624.934 118.111 624.703 116.801 624.732 115.484V101.179H627.962V115.484C627.962 117.469 628.543 118.983 629.706 120.028C630.869 121.073 632.528 121.596 634.683 121.598C636.75 121.598 638.312 121.074 639.39 120.028C640.468 118.982 641.006 117.469 641.006 115.484V101.179H644.233V115.495ZM660.505 103.699H652.422V101.193H671.811V103.702H663.721V123.591H660.502V103.702L660.505 103.699ZM679.59 101.191H682.821V123.589H679.59V101.193V101.191ZM692.585 107.979C693.057 106.594 693.803 105.319 694.779 104.231C695.795 103.114 697.035 102.227 698.419 101.629C701.667 100.329 705.288 100.329 708.535 101.629C709.918 102.225 711.158 103.113 712.169 104.231C713.146 105.319 713.893 106.593 714.364 107.979C715.339 110.835 715.339 113.936 714.364 116.793C713.893 118.179 713.146 119.455 712.169 120.544C711.156 121.662 709.917 122.55 708.535 123.152C705.286 124.44 701.669 124.44 698.419 123.152C697.036 122.55 695.796 121.661 694.779 120.544C693.803 119.455 693.057 118.179 692.585 116.793C691.616 113.935 691.616 110.836 692.585 107.979ZM695.561 115.727C695.862 116.804 696.37 117.811 697.056 118.692C697.758 119.588 698.653 120.313 699.674 120.812C700.873 121.338 702.166 121.609 703.474 121.609C704.782 121.609 706.076 121.338 707.275 120.812C708.299 120.315 709.196 119.59 709.898 118.692C710.58 117.808 711.088 116.802 711.394 115.727C712.017 113.544 712.017 111.229 711.394 109.045C711.087 107.971 710.58 106.965 709.898 106.082C709.196 105.185 708.299 104.462 707.275 103.968C706.077 103.439 704.783 103.167 703.474 103.167C702.166 103.167 700.872 103.439 699.674 103.968C698.653 104.463 697.757 105.186 697.056 106.082C696.372 106.964 695.864 107.97 695.561 109.045C694.923 111.227 694.923 113.546 695.561 115.727ZM723.964 101.191H727.389L740.165 119.35H740.236V101.193H743.288V123.591H739.766L727.088 105.614H727.027V123.591H723.982V101.193L723.964 101.191ZM767.541 107.746C767.362 106.137 766.729 104.968 765.653 104.254C764.576 103.539 763.197 103.173 761.528 103.173C760.857 103.172 760.187 103.234 759.527 103.359C758.911 103.469 758.318 103.681 757.771 103.987C757.235 104.278 756.792 104.716 756.494 105.249C756.196 105.783 756.055 106.39 756.087 107.001C756.077 107.311 756.13 107.619 756.241 107.908C756.354 108.198 756.528 108.461 756.751 108.678C757.26 109.148 757.862 109.506 758.517 109.729C759.33 110.02 760.165 110.246 761.014 110.405C761.942 110.58 762.893 110.773 763.866 110.984C764.84 111.195 765.793 111.441 766.725 111.721C767.601 111.98 768.435 112.366 769.2 112.866C769.915 113.335 770.513 113.963 770.946 114.702C771.414 115.605 771.641 116.614 771.605 117.631C771.568 118.648 771.272 119.638 770.747 120.509C770.163 121.351 769.406 122.057 768.526 122.579C767.579 123.125 766.553 123.52 765.484 123.75C764.385 123.999 763.263 124.125 762.136 124.127C760.836 124.134 759.539 123.976 758.278 123.66C757.135 123.374 756.053 122.885 755.083 122.215C754.176 121.576 753.431 120.732 752.908 119.751C752.353 118.66 752.08 117.447 752.112 116.223H755.169C755.146 117.073 755.352 117.913 755.766 118.655C756.153 119.324 756.686 119.898 757.325 120.332C758.009 120.785 758.767 121.114 759.564 121.305C760.439 121.516 761.335 121.62 762.234 121.616C762.968 121.616 763.701 121.553 764.424 121.428C765.117 121.314 765.789 121.096 766.418 120.783C766.987 120.494 767.477 120.068 767.843 119.544C768.225 118.947 768.414 118.247 768.384 117.539C768.417 116.848 768.18 116.172 767.725 115.653C767.23 115.143 766.634 114.743 765.975 114.479C765.172 114.153 764.342 113.902 763.494 113.727C762.56 113.53 761.611 113.336 760.641 113.144C759.671 112.953 758.707 112.731 757.783 112.469C756.907 112.235 756.068 111.882 755.287 111.421C754.58 111.011 753.977 110.442 753.526 109.758C753.059 108.997 752.83 108.113 752.868 107.221C752.837 106.192 753.093 105.175 753.608 104.285C754.104 103.462 754.783 102.765 755.592 102.247C756.462 101.698 757.416 101.294 758.416 101.053C759.481 100.791 760.575 100.659 761.672 100.661C762.837 100.655 763.999 100.792 765.132 101.072C766.134 101.312 767.079 101.748 767.914 102.356C768.706 102.94 769.355 103.698 769.812 104.571C770.317 105.555 770.587 106.644 770.598 107.751H767.541V107.746Z" fill="#1C1B1B"/>
</svg>
